<?xml version="1.0" encoding="UTF-8"?>
<svg version="1.1" xmlns="http://www.w3.org/2000/svg" width="500" height="500">
<path d="M0 0 C5.94476292 0.76397908 11.39174097 2.81365355 16.875 5.125 C31.77035102 11.16387402 47.42225784 15.31813553 62.95532227 19.37792969 C65 20 65 20 66 21 C67.14946594 27.80775249 67.15411433 34.5469408 67.125 41.4375 C67.12161621 42.58532959 67.11823242 43.73315918 67.11474609 44.91577148 C66.96575067 69.62995366 66.96575067 69.62995366 64.46484375 79.0859375 C63.96920943 81.12678471 63.75426929 83.09760614 63.5625 85.1875 C62.98903937 89.07428872 61.8649529 91.58091968 60 95 C59.6278958 96.32303717 59.29369827 97.65737935 59 99 C58.34490497 101.00382009 57.68025637 103.00458132 57 105 C56.34 105 55.68 105 55 105 C54.79375 105.66 54.5875 106.32 54.375 107 C52.48107924 111.13219075 49.81460101 114.45206622 47 118 C46.57332031 118.55171875 46.14664063 119.1034375 45.70703125 119.671875 C42.79736287 123.32543918 39.62455334 126.10035733 36 129 C35.34 129.66 34.68 130.32 34 131 C32.55627184 132.00057608 31.09587576 132.97727712 29.625 133.9375 C27.33224221 135.43661086 25.08632158 136.93429253 22.90625 138.59375 C20.43535449 140.41654177 17.74196131 141.62901934 15 143 C14.34 143.66 13.68 144.32 13 145 C9.00418549 147.9380989 4.97681569 149.53688251 0 149 C-3.95391853 147.45471855 -7.42155237 145.26680718 -11 143 C-12.15460494 142.29110774 -13.30956601 141.58279527 -14.46484375 140.875 C-21.61201262 136.43865851 -28.91559637 131.84607445 -35 126 C-35 125.34 -35 124.68 -35 124 C-35.59039062 123.7421875 -36.18078125 123.484375 -36.7890625 123.21875 C-48.28106626 116.8839352 -54.5229441 100.09114454 -58.12890625 88.3125 C-64.14039777 66.69561173 -64.71878738 43.17579392 -62 21 C-55.72137372 18.83603505 -49.39950253 16.95691178 -43 15.1875 C-34.190112 12.71052151 -25.57695985 9.87833321 -16.98876953 6.72460938 C-14.95464195 5.98347377 -12.91436632 5.26238397 -10.87109375 4.546875 C-9.89160767 4.20281616 -9.89160767 4.20281616 -8.89233398 3.85180664 C-8.26786377 3.63258545 -7.64339355 3.41336426 -7 3.1875 C-3.2144852 2.09015533 -3.2144852 2.09015533 0 0 Z M-6 15 C-12.7090953 17.83333486 -19.52355125 20.28164912 -26.4375 22.5625 C-27.35257324 22.86623535 -28.26764648 23.1699707 -29.21044922 23.48291016 C-34.77982466 25.31560597 -40.35660104 27.03938991 -46.0390625 28.4921875 C-47.71220912 28.92547248 -49.36035371 29.45345124 -51 30 C-51.02485364 34.02017255 -51.04293238 38.04031488 -51.05493164 42.06054688 C-51.05993786 43.4261147 -51.06674482 44.79167724 -51.07543945 46.15722656 C-51.08766831 48.12823118 -51.09272866 50.0992761 -51.09765625 52.0703125 C-51.10289307 53.25383301 -51.10812988 54.43735352 -51.11352539 55.65673828 C-51.0046147 58.8640997 -50.55447375 61.84470739 -50 65 C-50.04125 66.051875 -50.0825 67.10375 -50.125 68.1875 C-49.98496728 72.45849811 -49.06024201 75.99654665 -47.84765625 80.07421875 C-47.27238398 82.05983594 -46.76110756 84.06489341 -46.30859375 86.08203125 C-45.97021484 87.55736328 -45.97021484 87.55736328 -45.625 89.0625 C-45.43164062 89.96097656 -45.23828125 90.85945313 -45.0390625 91.78515625 C-44.17064934 94.17655654 -44.17064934 94.17655654 -41.80859375 95.296875 C-38.58537067 96.1038015 -35.75900086 96.22983663 -32.4375 96.1875 C-31.32246094 96.18105469 -30.20742187 96.17460937 -29.05859375 96.16796875 C-26.52440541 96.02879876 -24.41308007 95.73749391 -22 95 C-22.495 94.01 -22.495 94.01 -23 93 C-25.71446979 92.68758545 -28.33909361 92.48663408 -31.0625 92.375 C-31.82111328 92.33632813 -32.57972656 92.29765625 -33.36132812 92.2578125 C-35.24047195 92.16326438 -37.12020336 92.08053244 -39 92 C-45.03952215 78.3986652 -45.99179398 64.19976456 -41 50 C-35.841458 38.47748352 -28.06526086 30.82099747 -16.375 26.1875 C-3.50862941 21.37429357 8.55260765 22.29734029 21.2890625 27.2890625 C27.70966012 30.26834725 31.86073538 33.25102136 36 39 C33.98177083 38.67447917 31.96354167 38.34895833 29.9453125 38.0234375 C29.30335938 38.01570313 28.66140625 38.00796875 28 38 C27.34 38.66 26.68 39.32 26 40 C26.495 41.485 26.495 41.485 27 43 C23.04 43.495 23.04 43.495 19 44 C19 44.66 19 45.32 19 46 C18.01 46 17.02 46 16 46 C16 47.32 16 48.64 16 50 C14.68 50.33 13.36 50.66 12 51 C12 51.66 12 52.32 12 53 C13.98491642 52.73323796 13.98491642 52.73323796 16 52 C16.33 51.01 16.66 50.02 17 49 C20.3125 48.3125 20.3125 48.3125 24 48 C25.9375 49.4375 25.9375 49.4375 27 51 C27.99 50.67 28.98 50.34 30 50 C29.34 50 28.68 50 28 50 C28 49.01 28 48.02 28 47 C34.29304541 44.85671642 40.62267685 42.87724961 47 41 C48.85939879 48.78069851 50.41467342 55.98298054 50 64 C49.236875 63.67 48.47375 63.34 47.6875 63 C45.00930865 61.82563314 45.00930865 61.82563314 42 62 C42.33 62.99 42.66 63.98 43 65 C43.66 65 44.32 65 45 65 C44.98839844 66.05960938 44.97679687 67.11921875 44.96484375 68.2109375 C44.95546524 69.59895658 44.94636511 70.98697755 44.9375 72.375 C44.92493164 73.42300781 44.92493164 73.42300781 44.91210938 74.4921875 C44.8164558 78.37295376 44.8164558 78.37295376 46 82 C45.34 82 44.68 82 44 82 C43.77570313 83.28777344 43.55140625 84.57554687 43.3203125 85.90234375 C42.10627782 91.36549981 39.69140153 95.76988396 36.875 100.5625 C36.40707031 101.38041016 35.93914062 102.19832031 35.45703125 103.04101562 C34.31505456 105.03364841 33.16276703 107.0194522 32 109 C29 108 29 108 27 105 C26.34 105.66 25.68 106.32 25 107 C12.18975902 113.98740417 -3.14135251 117.10374371 -17.32421875 113.02734375 C-21.59391673 111.38802905 -25.87819266 109.24361469 -28 105 C-26.88625 105.4640625 -26.88625 105.4640625 -25.75 105.9375 C-11.5956657 109.94789472 1.82045153 107.1780656 14.70703125 100.5 C17.2495658 99.05100097 17.2495658 99.05100097 19 96 C18.01 95.01 17.02 94.02 16 93 C16.72445312 92.74605469 17.44890625 92.49210937 18.1953125 92.23046875 C27.5051222 88.14608149 37.04533862 78.91839049 42 70 C42 68.68 42 67.36 42 66 C38.20491565 67.26502812 37.84391841 68.97826032 36.03125 72.36328125 C34.68208374 74.50457163 33.30289068 75.02301608 31 76 C30.2575 76.7425 29.515 77.485 28.75 78.25 C25.42475172 81.57524828 21.79348295 84.23973209 18 87 C17.43152344 87.47050781 16.86304688 87.94101562 16.27734375 88.42578125 C12.93041865 90.7393504 9.31016872 92.3560516 5.625 94.0625 C4.51125 94.5894043 4.51125 94.5894043 3.375 95.12695312 C-0.68724036 97.0252969 -4.69980448 98.69634877 -9 100 C-10.02480469 100.31324219 -10.02480469 100.31324219 -11.0703125 100.6328125 C-20.18989136 102.8173504 -29.68826261 102.17620464 -39 102 C-31.62564922 115.7846236 -18.97439102 123.97100466 -6 132 C-5.31292969 132.45117188 -4.62585938 132.90234375 -3.91796875 133.3671875 C-0.60227377 135.47025255 -0.60227377 135.47025255 3.2109375 135.8828125 C7.12702736 134.64326585 10.30990032 132.58857308 13.75 130.375 C14.45576172 129.92640625 15.16152344 129.4778125 15.88867188 129.015625 C23.82743583 124.00518977 23.82743583 124.00518977 31 118 C31 117.34 31 116.68 31 116 C31.99 115.67 32.98 115.34 34 115 C34 114.34 34 113.68 34 113 C34.99 112.67 35.98 112.34 37 112 C37 111.34 37 110.68 37 110 C37.66 110 38.32 110 39 110 C54.6580838 93.02135491 55.20909046 64.64608843 55.0625 43.1875 C55.05798828 41.91068359 55.05347656 40.63386719 55.04882812 39.31835938 C55.03719452 36.21218789 55.02085075 33.10612092 55 30 C54.38294189 29.82984375 53.76588379 29.6596875 53.13012695 29.484375 C40.0097336 25.83719422 27.19960701 21.80039737 14.53125 16.796875 C13.77086426 16.49724854 13.01047852 16.19762207 12.22705078 15.88891602 C10.73556146 15.29359562 9.24948731 14.68453499 7.76904297 14.06225586 C1.84323588 11.65059018 -0.48397625 12.3285453 -6 15 Z M-6 28 C-6 28.99 -6 29.98 -6 31 C-5.34 31 -4.68 31 -4 31 C-4 33.31 -4 35.62 -4 38 C-2.70414084 37.57507874 -1.4133956 37.13454118 -0.125 36.6875 C0.59429687 36.44386719 1.31359375 36.20023438 2.0546875 35.94921875 C4.33994905 35.03664453 4.33994905 35.03664453 6 32 C6 31.01 6 30.02 6 29 C2.04 28.67 -1.92 28.34 -6 28 Z M-13 32 C-13.33 32.66 -13.66 33.32 -14 34 C-13.34 34 -12.68 34 -12 34 C-12.33 33.34 -12.66 32.68 -13 32 Z M-27.4375 37.6875 C-28.21996094 38.37199219 -29.00242187 39.05648437 -29.80859375 39.76171875 C-32.93688052 42.95692074 -35 45.44596861 -35 50 C-35.66 50 -36.32 50 -37 50 C-38.25836996 55.31311759 -38.51794374 60.72333843 -37 66 C-35.11050523 68.05744986 -33.58086988 68.79193325 -31 70 C-30.67 69.01 -30.34 68.02 -30 67 C-31.32 66.34 -32.64 65.68 -34 65 C-34 63.35 -34 61.7 -34 60 C-33.39671875 59.84144531 -32.7934375 59.68289062 -32.171875 59.51953125 C-26.82729237 57.95925793 -24.27168842 56.6738406 -21 52 C-19.33675599 50.99431758 -17.67063747 49.99335201 -16 49 C-15.67 48.01 -15.34 47.02 -15 46 C-12.9375 45.3125 -12.9375 45.3125 -11 45 C-11.66 43.02 -12.32 41.04 -13 39 C-15.49361571 40.20381448 -17.68143083 41.45428722 -20 43 C-20.66 41.68 -21.32 40.36 -22 39 C-21.34 38.01 -20.68 37.02 -20 36 C-20.33 35.34 -20.66 34.68 -21 34 C-24.03044464 34 -25.20786378 35.70682152 -27.4375 37.6875 Z M19 34 C18.34 35.65 17.68 37.3 17 39 C18.98 39.99 18.98 39.99 21 41 C21.66 39.02 22.32 37.04 23 35 C21.68 34.67 20.36 34.34 19 34 Z M12 41 C11.67 41.99 11.34 42.98 11 44 C11.66 44 12.32 44 13 44 C12.67 43.01 12.34 42.02 12 41 Z M31 52 C30.67 53.65 30.34 55.3 30 57 C27.8125 57.75 27.8125 57.75 25 58 C24.195625 57.34 23.39125 56.68 22.5625 56 C20.13099525 53.66864918 20.13099525 53.66864918 16.875 54.0625 C13.89966399 55.03271826 12.84263596 55.54315205 11 58 C10.443125 58.721875 9.88625 59.44375 9.3125 60.1875 C7.4809902 64.11216386 7.65659862 66.67314262 8 71 C8.95734941 73.19219635 8.95734941 73.19219635 10 75 C8.58994275 76.15395711 7.17166542 77.29787466 5.75 78.4375 C4.96109375 79.07558594 4.1721875 79.71367187 3.359375 80.37109375 C1.10179722 81.92971947 -0.27990577 82.78081885 -3 83 C-3.99 82.34 -4.98 81.68 -6 81 C-8.62531524 80.83286431 -8.62531524 80.83286431 -11 81 C-11 79.68 -11 78.36 -11 77 C-12.59993171 75.42033774 -12.59993171 75.42033774 -14.75 74.25 C-15.44609375 73.82203125 -16.1421875 73.3940625 -16.859375 72.953125 C-19.21848606 71.72882862 -19.21848606 71.72882862 -23 72 C-25.90207767 78.31684243 -25.90207767 78.31684243 -25 85 C-24.34 85.99 -23.68 86.98 -23 88 C-22.34 88 -21.68 88 -21 88 C-21 89.65 -21 91.3 -21 93 C-18.13380366 94.43309817 -16.77189764 93.53613279 -13.75 92.5625 C0.32610878 87.62321872 10.25179126 79.74820874 20.6953125 69.3046875 C22.04703556 67.95296444 23.41339312 66.61511675 24.8125 65.3125 C26.22363777 64.04781729 26.22363777 64.04781729 26 62 C26.66 62 27.32 62 28 62 C29.39829003 60.55282736 29.39829003 60.55282736 30.6875 58.6875 C31.14511719 58.07261719 31.60273438 57.45773438 32.07421875 56.82421875 C32.37972656 56.22222656 32.68523437 55.62023437 33 55 C32.505 53.515 32.505 53.515 32 52 C31.67 52 31.34 52 31 52 Z M-27 80 C-26 82 -26 82 -26 82 Z " fill="#103650" transform="translate(117,175)"/>
<path d="M0 0 C2.37620954 1.88580982 4.06369069 3.63339973 6 6 C6 6.66 6 7.32 6 8 C3.36 8 0.72 8 -2 8 C-2.185625 8.9590625 -2.185625 8.9590625 -2.375 9.9375 C-2.58125 10.618125 -2.7875 11.29875 -3 12 C-5.70879335 13.35439668 -8.00933268 13.06501451 -11 13 C-11 13.66 -11 14.32 -11 15 C-11.99 15 -12.98 15 -14 15 C-14 16.32 -14 17.64 -14 19 C-15.32 19.33 -16.64 19.66 -18 20 C-18 20.66 -18 21.32 -18 22 C-15.80876943 21.01772423 -14.22520352 20.25591309 -12.625 18.4375 C-10.29597725 16.37721065 -8.02461466 16.3360683 -5 16 C-5 16.99 -5 17.98 -5 19 C-3.02 19.66 -1.04 20.32 1 21 C0.8125 23.375 0.8125 23.375 0 26 C-2.5625 27.3125 -2.5625 27.3125 -5 28 C-5.70125 27.34 -6.4025 26.68 -7.125 26 C-10.43460229 23.69766797 -12.06225823 23.63369844 -16 24 C-16.495 24.99 -16.495 24.99 -17 26 C-17.680625 26.86625 -18.36125 27.7325 -19.0625 28.625 C-21.56582052 32.98562284 -21.48014641 35.03848711 -21 40 C-20.03689417 42.1879812 -20.03689417 42.1879812 -19 44 C-21.297124 46.04556576 -23.63961087 48.02802933 -26 50 C-26.763125 50.680625 -27.52625 51.36125 -28.3125 52.0625 C-32.77595921 53.61952066 -36.71675062 51.62181287 -41 50 C-41 48.68 -41 47.36 -41 46 C-44.84700632 43.91620491 -48.90054429 42.50313376 -53 41 C-52.95875 41.763125 -52.9175 42.52625 -52.875 43.3125 C-53 46 -53 46 -55 49 C-54.78244181 51.90077584 -54.56488387 53.45771148 -52.4375 55.5 C-51 57 -51 57 -50.8125 59.6875 C-50.9053125 60.8321875 -50.9053125 60.8321875 -51 62 C-55.03245091 63.00622133 -58.55204388 63.00343564 -62.6875 62.6875 C-63.82574219 62.60886719 -64.96398437 62.53023438 -66.13671875 62.44921875 C-69 62 -69 62 -71 60 C-75.80639945 45.45801044 -77.22938682 30.88665585 -70.8984375 16.49609375 C-64.5647006 4.42113082 -55.79802786 -2.28742057 -43.1484375 -7.01953125 C-28.26887506 -11.65324114 -13.05040853 -8.0955449 0 0 Z M-36 -3 C-36 -2.01 -36 -1.02 -36 0 C-35.34 0 -34.68 0 -34 0 C-34 2.31 -34 4.62 -34 7 C-32.70414084 6.57507874 -31.4133956 6.13454118 -30.125 5.6875 C-29.40570313 5.44386719 -28.68640625 5.20023438 -27.9453125 4.94921875 C-25.66005095 4.03664453 -25.66005095 4.03664453 -24 1 C-24 0.01 -24 -0.98 -24 -2 C-27.96 -2.33 -31.92 -2.66 -36 -3 Z M-43 1 C-43.33 1.66 -43.66 2.32 -44 3 C-43.34 3 -42.68 3 -42 3 C-42.33 2.34 -42.66 1.68 -43 1 Z M-57.4375 6.6875 C-58.21996094 7.37199219 -59.00242187 8.05648437 -59.80859375 8.76171875 C-62.93688052 11.95692074 -65 14.44596861 -65 19 C-65.66 19 -66.32 19 -67 19 C-68.25836996 24.31311759 -68.51794374 29.72333843 -67 35 C-65.11050523 37.05744986 -63.58086988 37.79193325 -61 39 C-60.67 38.01 -60.34 37.02 -60 36 C-61.32 35.34 -62.64 34.68 -64 34 C-64 32.35 -64 30.7 -64 29 C-63.39671875 28.84144531 -62.7934375 28.68289062 -62.171875 28.51953125 C-56.82729237 26.95925793 -54.27168842 25.6738406 -51 21 C-49.33675599 19.99431758 -47.67063747 18.99335201 -46 18 C-45.67 17.01 -45.34 16.02 -45 15 C-42.9375 14.3125 -42.9375 14.3125 -41 14 C-41.66 12.02 -42.32 10.04 -43 8 C-45.49361571 9.20381448 -47.68143083 10.45428722 -50 12 C-50.66 10.68 -51.32 9.36 -52 8 C-51.34 7.01 -50.68 6.02 -50 5 C-50.33 4.34 -50.66 3.68 -51 3 C-54.03044464 3 -55.20786378 4.70682152 -57.4375 6.6875 Z M-11 3 C-11.66 4.65 -12.32 6.3 -13 8 C-11.02 8.99 -11.02 8.99 -9 10 C-8.34 8.02 -7.68 6.04 -7 4 C-8.32 3.67 -9.64 3.34 -11 3 Z M-18 10 C-18.33 10.99 -18.66 11.98 -19 13 C-18.34 13 -17.68 13 -17 13 C-17.33 12.01 -17.66 11.02 -18 10 Z M-57 49 C-56 51 -56 51 -56 51 Z " fill="#1D5C88" transform="translate(147,206)"/>
<path d="M0 0 C2.49323286 7.46943837 3.40517449 15.16662649 3 23 C1.515 23.495 1.515 23.495 0 24 C-2.6875 22.5625 -2.6875 22.5625 -5 21 C-5 21.99 -5 22.98 -5 24 C-4.34 24 -3.68 24 -3 24 C-2.505 32.415 -2.505 32.415 -2 41 C-2.66 41 -3.32 41 -4 41 C-4.04898438 41.59167969 -4.09796875 42.18335938 -4.1484375 42.79296875 C-4.56456867 47.19104472 -5.04965595 50.96928897 -7 55 C-7.66 55 -8.32 55 -9 55 C-9.226875 55.825 -9.45375 56.65 -9.6875 57.5 C-11.27426232 61.73136618 -13.50748237 65.25171013 -16 69 C-16.5775 68.67 -17.155 68.34 -17.75 68 C-20.19883862 66.72924102 -20.19883862 66.72924102 -24 67 C-25.68208635 67.97383946 -27.34738161 68.97695052 -29 70 C-31.8125 71.0625 -31.8125 71.0625 -35 72 C-36.175625 72.350625 -37.35125 72.70125 -38.5625 73.0625 C-49.3479279 75.60991535 -60.64693245 76.27318918 -70.52734375 70.53125 C-72.50633144 69.11222192 -74.32549504 67.76808023 -76 66 C-76 65.34 -76 64.68 -76 64 C-74.87464844 64.17917969 -73.74929687 64.35835938 -72.58984375 64.54296875 C-56.99475663 66.7986684 -44.93242643 65.0169828 -31 57 C-30.89459074 54.78918149 -30.89459074 54.78918149 -32 52 C-31.154375 51.443125 -30.30875 50.88625 -29.4375 50.3125 C-15.07672737 40.88276673 -15.07672737 40.88276673 -6.25 26.625 C-6.1675 26.08875 -6.085 25.5525 -6 25 C-9.52523104 28.25064061 -9.52523104 28.25064061 -12.0625 32.25 C-12.5265625 33.11625 -12.5265625 33.11625 -13 34 C-14.32594105 34.36162029 -15.65938457 34.69728039 -17 35 C-17.33 35.99 -17.66 36.98 -18 38 C-19.94901027 39.66196899 -21.87352373 41.18446502 -23.9375 42.6875 C-24.48857422 43.10322266 -25.03964844 43.51894531 -25.60742188 43.94726562 C-29.73287408 47 -29.73287408 47 -32 47 C-32.33 47.99 -32.66 48.98 -33 50 C-35.20703125 51.0234375 -35.20703125 51.0234375 -38 52 C-40.86636903 53.30830122 -43.72068081 54.64053526 -46.57421875 55.9765625 C-49 57 -49 57 -51 57 C-51.495 57.99 -51.495 57.99 -52 59 C-54.109375 59.59765625 -54.109375 59.59765625 -56.75 60.0625 C-58.04164062 60.29646484 -58.04164062 60.29646484 -59.359375 60.53515625 C-60.23078125 60.68855469 -61.1021875 60.84195313 -62 61 C-62.77988281 61.18046875 -63.55976562 61.3609375 -64.36328125 61.546875 C-67.74552983 62.12812068 -71.00656528 62.1702244 -74.4375 62.1875 C-75.71496094 62.20167969 -76.99242188 62.21585937 -78.30859375 62.23046875 C-81.90281971 62.00606734 -84.66196958 61.30528856 -88 60 C-88 59.01 -88 58.02 -88 57 C-89.32 56.34 -90.64 55.68 -92 55 C-91.67 54.34 -91.34 53.68 -91 53 C-90.42475586 53.16298584 -89.84951172 53.32597168 -89.25683594 53.49389648 C-87.04291893 53.99037528 -85.15326203 54.11479744 -82.890625 54.09765625 C-81.75947266 54.09282227 -81.75947266 54.09282227 -80.60546875 54.08789062 C-79.82816406 54.07951172 -79.05085938 54.07113281 -78.25 54.0625 C-77.06083984 54.05573242 -77.06083984 54.05573242 -75.84765625 54.04882812 C-73.89840492 54.03708565 -71.94919262 54.01915146 -70 54 C-70 53.34 -70 52.68 -70 52 C-68.7625 51.773125 -67.525 51.54625 -66.25 51.3125 C-49.4756731 47.48585668 -32.94485846 36.80988941 -23.2265625 22.50390625 C-22.82179688 22.00761719 -22.41703125 21.51132813 -22 21 C-21.34 21 -20.68 21 -20 21 C-18.47700477 18.06279492 -17.19899698 15.0831351 -16 12 C-16.99 11.3503125 -16.99 11.3503125 -18 10.6875 C-18.99 9.8521875 -18.99 9.8521875 -20 9 C-20 8.01 -20 7.02 -20 6 C-17.23371889 4.80077976 -14.462845 3.61539501 -11.6875 2.4375 C-10.90181641 2.09525391 -10.11613281 1.75300781 -9.30664062 1.40039062 C-8.54931641 1.08134766 -7.79199219 0.76230469 -7.01171875 0.43359375 C-6.31522217 0.13509521 -5.61872559 -0.16340332 -4.90112305 -0.47094727 C-3 -1 -3 -1 0 0 Z " fill="#1D374A" transform="translate(165,216)"/>
<path d="M0 0 C3.856875 -0.061875 7.71375 -0.12375 11.6875 -0.1875 C13.4986731 -0.22846802 13.4986731 -0.22846802 15.34643555 -0.27026367 C16.308479 -0.27775635 17.27052246 -0.28524902 18.26171875 -0.29296875 C19.24100342 -0.3086792 20.22028809 -0.32438965 21.22924805 -0.34057617 C24.52251457 0.06422661 26.34115396 1.0417397 29 3 C31.95598492 7.43397738 31.91019536 11.80430149 31 17 C29.20452378 19.44790217 27.65060277 20.39859416 25 22 C25.5775 22.7425 26.155 23.485 26.75 24.25 C30.29135732 29.52409287 33 36.63648544 33 43 C29.7 43 26.4 43 23 43 C22.65066406 41.92878906 22.30132812 40.85757813 21.94140625 39.75390625 C21.48192855 38.35671896 21.02228454 36.95958635 20.5625 35.5625 C20.21735352 34.50192383 20.21735352 34.50192383 19.86523438 33.41992188 C18.92578853 29.93693205 18.92578853 29.93693205 17 27 C14.36 26.67 11.72 26.34 9 26 C9 31.61 9 37.22 9 43 C6.03 43 3.06 43 0 43 C0 28.81 0 14.62 0 0 Z M9 7 C9 10.63 9 14.26 9 18 C10.588125 18.061875 12.17625 18.12375 13.8125 18.1875 C14.70582031 18.22230469 15.59914063 18.25710937 16.51953125 18.29296875 C19.040209 18.20669376 19.040209 18.20669376 20.796875 16.64453125 C22.19121761 14.99313188 22.19121761 14.99313188 22.4375 12.5 C22.19638668 9.95163275 22.19638668 9.95163275 20.5625 8.1875 C16.66280981 6.3803265 13.2730991 6.81148092 9 7 Z " fill="#19364B" transform="translate(313,203)"/>
<path d="M0 0 C4.29 0 8.58 0 13 0 C14.9997847 5.63959039 16.99345162 11.28129122 18.98144531 16.92504883 C19.65879704 18.84524031 20.33782562 20.76484112 21.01855469 22.68383789 C21.99594039 25.44003709 22.96730355 28.19829451 23.9375 30.95703125 C24.24373291 31.81649857 24.54996582 32.67596588 24.86547852 33.56147766 C25.14576904 34.36208115 25.42605957 35.16268463 25.71484375 35.98754883 C25.96355225 36.6914827 26.21226074 37.39541656 26.46850586 38.12068176 C27 40 27 40 27 43 C23.7 43 20.4 43 17 43 C16.34 40.03 15.68 37.06 15 34 C9.39 34 3.78 34 -2 34 C-2.66 36.97 -3.32 39.94 -4 43 C-7.3 43 -10.6 43 -14 43 C-11.58307986 33.58803452 -8.50640354 24.48050847 -5.3125 15.3125 C-4.79589521 13.82107737 -4.27961686 12.32954163 -3.76367188 10.83789062 C-2.51286802 7.22394746 -1.25767814 3.61155632 0 0 Z M6 10 C4.35 15.28 2.7 20.56 1 26 C4.63 26 8.26 26 12 26 C10.35 20.72 8.7 15.44 7 10 C6.67 10 6.34 10 6 10 Z " fill="#18364B" transform="translate(362,203)"/>
<path d="M0 0 C9.9 0 19.8 0 30 0 C30 2.31 30 4.62 30 7 C29 8 29 8 27.14233398 8.11352539 C26.35157471 8.10828857 25.56081543 8.10305176 24.74609375 8.09765625 C23.89208984 8.09443359 23.03808594 8.09121094 22.15820312 8.08789062 C21.26037109 8.07951172 20.36253906 8.07113281 19.4375 8.0625 C18.53580078 8.05798828 17.63410156 8.05347656 16.70507812 8.04882812 C14.47002411 8.03700244 12.23500398 8.01906638 10 8 C10 10.97 10 13.94 10 17 C15.61 17 21.22 17 27 17 C27 19.64 27 22.28 27 25 C21.39 25 15.78 25 10 25 C10 28.3 10 31.6 10 35 C16.6 35 23.2 35 30 35 C30 37.64 30 40.28 30 43 C20.1 43 10.2 43 0 43 C0 28.81 0 14.62 0 0 Z " fill="#18364C" transform="translate(276,203)"/>
<path d="M0 0 C1.5 2.1875 1.5 2.1875 2 4 C0.68 5.65 -0.64 7.3 -2 9 C-4.28805446 8.49154345 -6.1938103 7.90571391 -8.3125 6.875 C-11.81692362 5.73402487 -14.42744204 6.29949844 -18 7 C-18.33 8.32 -18.66 9.64 -19 11 C-14.97309444 12.83836993 -11.17097375 14.23207546 -6.875 15.3125 C-3.68970246 16.26906039 -1.25663782 17.13866023 1.125 19.5 C3.74947203 24.39901446 4.01105927 28.5564569 3 34 C1.34543406 37.41043184 -0.87426984 39.45044592 -4.3125 41.12890625 C-10.54363377 43.1485906 -17.63034903 43.0547063 -23.5625 40.1875 C-26.08710601 38.77046308 -28.10895123 37.20333205 -30 35 C-29.84261966 32.48191449 -29.16227577 31.22409512 -27.6875 29.1875 C-26 28 -26 28 -24.0625 28.125 C-22 29 -22 29 -20.25 30.5 C-16.84690307 32.76873129 -14.08250714 32.8055949 -10 33 C-9.01 32.34 -8.02 31.68 -7 31 C-7.495 28.525 -7.495 28.525 -8 26 C-9.53720703 25.54560547 -9.53720703 25.54560547 -11.10546875 25.08203125 C-12.46640028 24.65967319 -13.82706353 24.23644997 -15.1875 23.8125 C-15.86103516 23.61591797 -16.53457031 23.41933594 -17.22851562 23.21679688 C-21.94578023 21.72107883 -24.72491254 19.86719366 -28 16 C-29.61078041 12.77843917 -29.45536703 9.49331563 -29 6 C-26.92719803 1.60565982 -24.70150268 -0.85818533 -20.05078125 -2.53125 C-12.90351091 -4.16491179 -6.50259294 -3.25129647 0 0 Z " fill="#19364A" transform="translate(231,205)"/>
<path d="M0 0 C3.691875 -0.061875 7.38375 -0.12375 11.1875 -0.1875 C12.3427417 -0.21481201 13.4979834 -0.24212402 14.68823242 -0.27026367 C15.60967041 -0.27775635 16.5311084 -0.28524902 17.48046875 -0.29296875 C18.41785889 -0.3086792 19.35524902 -0.32438965 20.32104492 -0.34057617 C23.52755091 0.06706767 25.38298908 1.13870347 28 3 C30.56570589 6.42094119 30.43708054 9.84773484 30 14 C28 16.9375 28 16.9375 26 19 C26.78375 19.5775 27.5675 20.155 28.375 20.75 C32.06550209 23.91328751 32.86497312 25.54170971 33.3125 30.375 C32.96657245 34.38775961 32.21088236 36.64555779 30 40 C26.258815 42.76054538 23.65418913 43.3639106 19.04296875 43.29296875 C18.04031982 43.28547607 17.0376709 43.2779834 16.00463867 43.27026367 C14.74498291 43.24295166 13.48532715 43.21563965 12.1875 43.1875 C8.165625 43.125625 4.14375 43.06375 0 43 C0 28.81 0 14.62 0 0 Z M7 5 C6.80602524 6.97854258 6.61998679 8.9578648 6.4375 10.9375 C6.33308594 12.03964844 6.22867187 13.14179688 6.12109375 14.27734375 C6.08113281 15.17582031 6.04117187 16.07429688 6 17 C7.78933876 18.78933876 10.3301621 18.25643059 12.75 18.3125 C16.64280841 18.26610181 18.75253718 18.11672774 22.3125 16.4375 C24.3438977 13.99736477 24.3438977 13.99736477 24 10.375 C23.31742476 6.74926111 23.31742476 6.74926111 20 5 C16.79620876 4.75753217 16.79620876 4.75753217 13.3125 4.875 C12.13300781 4.89304687 10.95351563 4.91109375 9.73828125 4.9296875 C8.38283203 4.96449219 8.38283203 4.96449219 7 5 Z M7 23 C7 27.95 7 32.9 7 38 C9.3925 38.061875 11.785 38.12375 14.25 38.1875 C15.37003418 38.22846802 15.37003418 38.22846802 16.51269531 38.27026367 C19.59542569 38.30881853 21.70506641 38.16195226 24.42578125 36.66796875 C26.7545394 34.20052525 26.93297507 32.35124664 27 29 C25.26655125 25.27156036 25.26655125 25.27156036 22 23 C19.44612508 22.92826194 16.92723239 22.90712268 14.375 22.9375 C11.94125 22.958125 9.5075 22.97875 7 23 Z " fill="#18334A" transform="translate(329,256)"/>
<path d="M0 0 C5.7451052 3.32915553 8.21060198 7.69823405 10.0859375 13.921875 C11.69402198 21.05338007 10.83191117 27.74311853 7.625 34.3125 C4.61093958 38.8595739 1.92487639 41.67224629 -3.375 43.3125 C-9.771966 43.97544264 -16.02768549 44.25932738 -21.375 40.3125 C-26.94023517 35.23119832 -28.86676998 30.49644619 -29.58984375 23.12109375 C-29.89314956 16.14506019 -28.3529574 9.58873019 -24.125 3.9375 C-17.429149 -2.45399414 -8.41132202 -3.85323132 0 0 Z M-20.375 9.3125 C-23.96236512 14.74302858 -22.92032326 22.08783447 -22.375 28.3125 C-21.27741241 31.88814617 -19.80345816 34.41704862 -16.54296875 36.4609375 C-11.71091061 38.35893511 -6.22331736 38.02036622 -1.4375 36.1875 C2.16335271 32.91399754 3.49000104 29.45086965 4.05859375 24.65625 C4.05988281 23.3878125 4.06117188 22.119375 4.0625 20.8125 C4.08183594 19.5440625 4.10117187 18.275625 4.12109375 16.96875 C3.43124727 11.88452713 1.35969552 8.95662909 -2.3203125 5.46875 C-9.03849874 1.68817371 -15.56115244 4.01726769 -20.375 9.3125 Z " fill="#19354A" transform="translate(309.375,256.6875)"/>
<path d="M0 0 C2.0625 1.9375 2.0625 1.9375 3 4 C2.6875 6.25 2.6875 6.25 2 8 C0.3125 8.8125 0.3125 8.8125 -2 9 C-2.680625 8.195625 -3.36125 7.39125 -4.0625 6.5625 C-7.9339073 3.18531491 -10.40771709 3.51169375 -15.37890625 3.62890625 C-18.16135025 4.02284393 -19.72931506 4.34379217 -22 6 C-24.93770912 10.51955249 -25.407514 14.16770401 -25.375 19.5 C-25.38273438 20.7684375 -25.39046875 22.036875 -25.3984375 23.34375 C-24.9711943 27.26433467 -24.09238096 29.67565643 -22 33 C-17.79150453 35.6934371 -15.17761165 36.33464432 -10.25 35.5 C-7.16527181 34.63963363 -6.18002518 34.20252833 -4 31.75 C-2.93691493 28.82651606 -2.35894992 26.08696933 -2 23 C-5.96 23 -9.92 23 -14 23 C-14 21.35 -14 19.7 -14 18 C-8.06 18 -2.12 18 4 18 C4 25.59 4 33.18 4 41 C2.02 41 0.04 41 -2 41 C-2.33 40.01 -2.66 39.02 -3 38 C-3.433125 38.474375 -3.86625 38.94875 -4.3125 39.4375 C-7.76274017 42.63216683 -11.91543269 42.33578264 -16.36328125 42.27734375 C-21.969843 41.68761651 -25.72500231 39.47631311 -29.375 35.25 C-33.3606968 27.2786064 -34.35428599 18.91991165 -31.8125 10.3125 C-29.98875313 5.47450483 -27.85255772 1.64786704 -23.21484375 -1.03125 C-15.52155857 -4.33492714 -7.35710575 -4.04899262 0 0 Z " fill="#1A364A" transform="translate(236,258)"/>
<path d="M0 0 C9.24 0 18.48 0 28 0 C28 2.64 28 5.28 28 8 C22.06 8 16.12 8 10 8 C10 11.3 10 14.6 10 18 C15.61 18 21.22 18 27 18 C27 20.64 27 23.28 27 26 C21.39 26 15.78 26 10 26 C10 31.61 10 37.22 10 43 C6.7 43 3.4 43 0 43 C0 28.81 0 14.62 0 0 Z " fill="#19354A" transform="translate(241,203)"/>
<path d="M0 0 C2.05078125 0.03255208 4.1015625 0.06510417 6.15234375 0.09765625 C11.51708222 14.31421319 16.41980676 28.65906219 21.15234375 43.09765625 C18.84234375 43.09765625 16.53234375 43.09765625 14.15234375 43.09765625 C13.64619077 41.82926099 13.14765276 40.55782523 12.65234375 39.28515625 C12.37390625 38.57746094 12.09546875 37.86976563 11.80859375 37.140625 C11.15234375 35.09765625 11.15234375 35.09765625 11.15234375 32.09765625 C5.21234375 32.09765625 -0.72765625 32.09765625 -6.84765625 32.09765625 C-7.83765625 35.72765625 -8.82765625 39.35765625 -9.84765625 43.09765625 C-12.15765625 43.09765625 -14.46765625 43.09765625 -16.84765625 43.09765625 C-14.72206742 34.57040052 -11.93773045 26.34148898 -8.9765625 18.078125 C-8.21213051 15.94326054 -7.45529469 13.80580511 -6.69921875 11.66796875 C-2.59473331 0.13714235 -2.59473331 0.13714235 0 0 Z M1.15234375 7.09765625 C0.1474748 10.05435843 -0.85071649 13.01327202 -1.84765625 15.97265625 C-2.13382812 16.81441406 -2.42 17.65617187 -2.71484375 18.5234375 C-2.98554688 19.32910156 -3.25625 20.13476562 -3.53515625 20.96484375 C-3.91220703 22.08028564 -3.91220703 22.08028564 -4.296875 23.21826172 C-4.94140119 25.09112939 -4.94140119 25.09112939 -4.84765625 27.09765625 C-0.22765625 27.09765625 4.39234375 27.09765625 9.15234375 27.09765625 C8.20320215 23.94877453 7.24357871 20.80379046 6.27734375 17.66015625 C5.87322266 16.3134082 5.87322266 16.3134082 5.4609375 14.93945312 C5.19667969 14.08544922 4.93242187 13.23144531 4.66015625 12.3515625 C4.29881592 11.16542358 4.29881592 11.16542358 3.93017578 9.95532227 C3.30862653 7.90400633 3.30862653 7.90400633 1.15234375 7.09765625 Z " fill="#18354A" transform="translate(382.84765625,255.90234375)"/>
<path d="M0 0 C2.37620954 1.88580982 4.06369069 3.63339973 6 6 C6 6.66 6 7.32 6 8 C3.36 8 0.72 8 -2 8 C-2.185625 8.9590625 -2.185625 8.9590625 -2.375 9.9375 C-2.58125 10.618125 -2.7875 11.29875 -3 12 C-5.70879335 13.35439668 -8.00933268 13.06501451 -11 13 C-11 13.66 -11 14.32 -11 15 C-11.99 15 -12.98 15 -14 15 C-14 16.32 -14 17.64 -14 19 C-16 18 -16 18 -17 15 C-17.99 14.67 -18.98 14.34 -20 14 C-20 11.36 -20 8.72 -20 6 C-20.99 7.485 -20.99 7.485 -22 9 C-22.33 7.68 -22.66 6.36 -23 5 C-25.31 5.33 -27.62 5.66 -30 6 C-30 6.66 -30 7.32 -30 8 C-31.65 8 -33.3 8 -35 8 C-35.226875 7.071875 -35.45375 6.14375 -35.6875 5.1875 C-37.2088437 1.49280817 -38.46352496 0.67517239 -42 -1 C-41.67 -1.99 -41.34 -2.98 -41 -4 C-42.65 -4.33 -44.3 -4.66 -46 -5 C-31.56518052 -13.42031136 -13.24947243 -8.21902999 0 0 Z M-36 -3 C-36 -2.01 -36 -1.02 -36 0 C-35.34 0 -34.68 0 -34 0 C-34 2.31 -34 4.62 -34 7 C-32.70414084 6.57507874 -31.4133956 6.13454118 -30.125 5.6875 C-29.40570313 5.44386719 -28.68640625 5.20023438 -27.9453125 4.94921875 C-25.66005095 4.03664453 -25.66005095 4.03664453 -24 1 C-24 0.01 -24 -0.98 -24 -2 C-27.96 -2.33 -31.92 -2.66 -36 -3 Z M-11 3 C-11.66 4.65 -12.32 6.3 -13 8 C-11.02 8.99 -11.02 8.99 -9 10 C-8.34 8.02 -7.68 6.04 -7 4 C-8.32 3.67 -9.64 3.34 -11 3 Z M-18 10 C-18.33 10.99 -18.66 11.98 -19 13 C-18.34 13 -17.68 13 -17 13 C-17.33 12.01 -17.66 11.02 -18 10 Z " fill="#205981" transform="translate(147,206)"/>
<path d="M0 0 C1.98 0 3.96 0 6 0 C6 12.54 6 25.08 6 38 C12.93 38 19.86 38 27 38 C27 39.65 27 41.3 27 43 C18.09 43 9.18 43 0 43 C0 28.81 0 14.62 0 0 Z " fill="#183448" transform="translate(411,256)"/>
<path d="M0 0 C1.98 0 3.96 0 6 0 C6 12.54 6 25.08 6 38 C12.93 38 19.86 38 27 38 C27 39.65 27 41.3 27 43 C18.09 43 9.18 43 0 43 C0 28.81 0 14.62 0 0 Z " fill="#17354C" transform="translate(250,256)"/>
<path d="M0 0 C0.33 0.66 0.66 1.32 1 2 C3.02463255 2.65213292 3.02463255 2.65213292 5 3 C4.67 3.99 4.34 4.98 4 6 C3.34 6 2.68 6 2 6 C2.37125 6.928125 2.7425 7.85625 3.125 8.8125 C3.558125 10.3903125 3.558125 10.3903125 4 12 C3.01 13.485 3.01 13.485 2 15 C2.21755819 17.90077584 2.43511613 19.45771148 4.5625 21.5 C6 23 6 23 6.1875 25.6875 C6.0946875 26.8321875 6.0946875 26.8321875 6 28 C-0.37541416 29.81472463 -6.14881121 27.73003327 -12 25 C-14.35683908 22.5895964 -14.40807955 21.49233065 -15 18 C-14.6875 14.0625 -14.6875 14.0625 -14 11 C-13.01 11 -12.02 11 -11 11 C-9.89163577 9.11683841 -9.89163577 9.11683841 -9 7 C-9.33 6.34 -9.66 5.68 -10 5 C-7.03 5.33 -4.06 5.66 -1 6 C-1.020625 5.195625 -1.04125 4.39125 -1.0625 3.5625 C-1 1 -1 1 0 0 Z M0 15 C1 17 1 17 1 17 Z " fill="#1C5C88" transform="translate(90,240)"/>
<path d="M0 0 C9.52935418 1.94116474 17.6397249 5.46809528 24 13 C24 13.66 24 14.32 24 15 C21.36 15 18.72 15 16 15 C15.87625 15.639375 15.7525 16.27875 15.625 16.9375 C15.315625 17.9584375 15.315625 17.9584375 15 19 C12.29120665 20.35439668 9.99066732 20.06501451 7 20 C7 20.66 7 21.32 7 22 C6.01 22 5.02 22 4 22 C4 23.32 4 24.64 4 26 C2 25 2 25 1 22 C0.01 21.67 -0.98 21.34 -2 21 C-1.67 19.68 -1.34 18.36 -1 17 C-0.34 17.99 0.32 18.98 1 20 C0.67 18.35 0.34 16.7 0 15 C0.66 15 1.32 15 2 15 C2.33 16.65 2.66 18.3 3 20 C3.99 19.67 4.98 19.34 6 19 C6.33 18.34 6.66 17.68 7 17 C6.01 17 5.02 17 4 17 C3.875 13.625 3.875 13.625 4 10 C4.66 9.34 5.32 8.68 6 8 C5.34 6.68 4.68 5.36 4 4 C4.99 4 5.98 4 7 4 C4.69 3.01 2.38 2.02 0 1 C0 0.67 0 0.34 0 0 Z M7 10 C6.34 11.65 5.68 13.3 5 15 C6.98 15.99 6.98 15.99 9 17 C9.66 15.02 10.32 13.04 11 11 C9.68 10.67 8.36 10.34 7 10 Z " fill="#205175" transform="translate(129,199)"/>
<path d="M0 0 C0 0.99 0 1.98 0 3 C-9.64432781 5.43893784 -19.29631332 7.80670096 -29 10 C-30.82310939 25.26854118 -31.73036279 39.75743926 -29.53613281 55.04907227 C-28.787842 60.681763 -28.787842 60.681763 -31 64 C-32.56376355 53.31893648 -33.19341495 42.79848064 -33.1875 32 C-33.18814453 30.86780029 -33.18878906 29.73560059 -33.18945312 28.5690918 C-33.14686784 21.99014927 -32.80070145 15.53092275 -32 9 C-25.40837434 6.73574764 -18.76532546 4.72019101 -12.0625 2.8125 C-11.11826172 2.53986328 -10.17402344 2.26722656 -9.20117188 1.98632812 C-8.30076172 1.72916016 -7.40035156 1.47199219 -6.47265625 1.20703125 C-5.66062744 0.9747583 -4.84859863 0.74248535 -4.01196289 0.50317383 C-2 0 -2 0 0 0 Z " fill="#172E42" transform="translate(87,187)"/>
<path d="M0 0 C2 1 4 2 6 3 C5.67 3.66 5.34 4.32 5 5 C4.34 5 3.68 5 3 5 C3.61667207 7.46070116 4.24288393 9.91826521 4.875 12.375 C5.13603516 13.42300781 5.13603516 13.42300781 5.40234375 14.4921875 C6.44145274 18.64874736 6.44145274 18.64874736 9 22 C9.68021396 23.66118367 10.34506008 25.32869036 11 27 C11.92115251 28.70807994 12.88072216 30.39592549 13.875 32.0625 C14.36742188 32.89910156 14.85984375 33.73570312 15.3671875 34.59765625 C16.94685321 37.08540311 16.94685321 37.08540311 19.1953125 39.18359375 C21 41 21 41 21 43 C22.485 43.495 22.485 43.495 24 44 C24 44.66 24 45.32 24 46 C25.485 46.495 25.485 46.495 27 47 C27 47.66 27 48.32 27 49 C27.886875 49.20625 28.77375 49.4125 29.6875 49.625 C33.92278682 51.38304358 35.30493333 53.35373333 38 57 C34.03990775 57 32.85479241 55.59219817 29.8125 53.125 C28.91144531 52.40570313 28.01039062 51.68640625 27.08203125 50.9453125 C26.39496094 50.30335938 25.70789063 49.66140625 25 49 C25 48.34 25 47.68 25 47 C24.40960938 46.7421875 23.81921875 46.484375 23.2109375 46.21875 C11.88531355 39.97564987 5.71402619 23.52204225 2.0234375 11.93359375 C0.83446378 7.76107384 0 4.36805969 0 0 Z " fill="#173043" transform="translate(57,252)"/>
<path d="M0 0 C0.33 0.99 0.66 1.98 1 3 C4.00847418 4.22520264 4.00847418 4.22520264 7 5 C6.8125 7.375 6.8125 7.375 6 10 C3.4375 11.3125 3.4375 11.3125 1 12 C0.29875 11.34 -0.4025 10.68 -1.125 10 C-4.43460229 7.69766797 -6.06225823 7.63369844 -10 8 C-10.33 8.66 -10.66 9.32 -11 10 C-12.5625 8.25 -12.5625 8.25 -14 6 C-13.6875 3.75 -13.6875 3.75 -13 2 C-12.01 2.33 -11.02 2.66 -10 3 C-10.99 3.495 -10.99 3.495 -12 4 C-12 4.66 -12 5.32 -12 6 C-9.80540745 5.01621713 -8.20335306 4.22103594 -6.5625 2.4375 C-4.50800956 0.54736879 -2.72005723 0.3675753 0 0 Z " fill="#26516D" transform="translate(141,222)"/>
<path d="M0 0 C0 0.33 0 0.66 0 1 C-1.299375 0.95875 -2.59875 0.9175 -3.9375 0.875 C-8.87885066 0.85931317 -13.22036588 1.78612467 -18 3 C-13.71 3.33 -9.42 3.66 -5 4 C-5 4.66 -5 5.32 -5 6 C-13.57142857 6.14285714 -13.57142857 6.14285714 -17 5 C-17 5.99 -17 6.98 -17 8 C-16.34 8 -15.68 8 -15 8 C-14.67 9.98 -14.34 11.96 -14 14 C-12.35 13.67 -10.7 13.34 -9 13 C-9.99 13.495 -9.99 13.495 -11 14 C-11 14.66 -11 15.32 -11 16 C-12.65 16 -14.3 16 -16 16 C-16.226875 15.071875 -16.45375 14.14375 -16.6875 13.1875 C-18.2088437 9.49280817 -19.46352496 8.67517239 -23 7 C-22.67 6.01 -22.34 5.02 -22 4 C-23.65 3.67 -25.3 3.34 -27 3 C-18.70138488 -1.84085882 -9.15970187 -1.8789132 0 0 Z " fill="#1F5273" transform="translate(128,198)"/>
<path d="M0 0 C0.66 0.33 1.32 0.66 2 1 C1.3503125 1.72316406 1.3503125 1.72316406 0.6875 2.4609375 C0.130625 3.09257812 -0.42625 3.72421875 -1 4.375 C-1.556875 5.00148437 -2.11375 5.62796875 -2.6875 6.2734375 C-4.20172487 7.90389833 -4.20172487 7.90389833 -4 10 C-4.66 10 -5.32 10 -6 10 C-6 10.99 -6 11.98 -6 13 C-6.66 13 -7.32 13 -8 13 C-8.2361959 19.40353322 -7.823321 24.84629161 -6 31 C-6.99 30.67 -7.98 30.34 -9 30 C-9.66 25.05 -10.32 20.1 -11 15 C-11.99 15.99 -12.98 16.98 -14 18 C-12.34910311 12.37194242 -10.611032 7.65939612 -7 3 C-6.34 2.67 -5.68 2.34 -5 2 C-5.66 3.98 -6.32 5.96 -7 8 C-6.66226563 7.50628906 -6.32453125 7.01257813 -5.9765625 6.50390625 C-5.53054687 5.86324219 -5.08453125 5.22257813 -4.625 4.5625 C-4.18414062 3.92441406 -3.74328125 3.28632813 -3.2890625 2.62890625 C-2 1 -2 1 0 0 Z " fill="#224D6D" transform="translate(88,212)"/>
<path d="M0 0 C0.99 0.66 1.98 1.32 3 2 C2.67 3.98 2.34 5.96 2 8 C1.34 8 0.68 8 0 8 C-0.309375 8.99 -0.309375 8.99 -0.625 10 C-2.51877808 14.13187946 -5.18467553 17.45296992 -8 21 C-8.43828125 21.56332031 -8.8765625 22.12664062 -9.328125 22.70703125 C-11.91882638 25.94540798 -14.67444033 28.52958425 -18 31 C-18.33 30.34 -18.66 29.68 -19 29 C-18.01 27.515 -18.01 27.515 -17 26 C-16.01 26 -15.02 26 -14 26 C-13.7525 25.443125 -13.505 24.88625 -13.25 24.3125 C-11.77719736 21.58781512 -9.93745204 19.42181505 -8 17 C-3.53663201 11.26876734 -3.53663201 11.26876734 -1.625 4.4375 C-1.74875 3.633125 -1.8725 2.82875 -2 2 C-1.34 2 -0.68 2 0 2 C0 1.34 0 0.68 0 0 Z " fill="#152B3F" transform="translate(172,272)"/>
<path d="M0 0 C0.33 0 0.66 0 1 0 C1.01981934 0.62455078 1.03963867 1.24910156 1.06005859 1.89257812 C1.15616932 4.76209381 1.26549487 7.63096547 1.375 10.5 C1.4059375 11.48226562 1.436875 12.46453125 1.46875 13.4765625 C1.70104778 19.28400709 2.38207305 24.4175345 4 30 C4.33 31.32 4.66 32.64 5 34 C8.63 34.66 12.26 35.32 16 36 C16 36.33 16 36.66 16 37 C14.20866022 37.05391993 12.41686101 37.09275571 10.625 37.125 C9.62726563 37.14820313 8.62953125 37.17140625 7.6015625 37.1953125 C5 37 5 37 3 35 C2.1926653 32.55737056 1.49679769 30.17757614 0.875 27.6875 C0.69686768 26.97416504 0.51873535 26.26083008 0.33520508 25.52587891 C-1.67217438 16.90747862 -1.58580889 8.68971699 0 0 Z " fill="#244E6F" transform="translate(73,231)"/>
<path d="M0 0 C3.875 0.875 3.875 0.875 5 2 C5.66 2 6.32 2 7 2 C7.33 1.34 7.66 0.68 8 0 C9.125 1.75 9.125 1.75 10 4 C9.1875 6 9.1875 6 8 8 C7.63215869 9.3242287 7.28797019 10.65613912 7 12 C7.99 12 8.98 12 10 12 C9.67 12.99 9.34 13.98 9 15 C8.01 15 7.02 15 6 15 C5.67 13.35 5.34 11.7 5 10 C4.34 10 3.68 10 3 10 C3.33 8.68 3.66 7.36 4 6 C2.35 6 0.7 6 -1 6 C-0.67 4.02 -0.34 2.04 0 0 Z " fill="#1C5D8C" transform="translate(126,204)"/>
<path d="M0 0 C0.33 0 0.66 0 1 0 C1.41277905 27.94514191 1.41277905 27.94514191 -1 41 C-1.33 41 -1.66 41 -2 41 C-2.11894215 31.15423293 -1.96730139 21.33890122 -1.5625 11.5 C-1.52326416 10.47898193 -1.48402832 9.45796387 -1.44360352 8.40600586 C-1.40162842 7.45733643 -1.35965332 6.50866699 -1.31640625 5.53125 C-1.26141968 4.25604492 -1.26141968 4.25604492 -1.20532227 2.95507812 C-1 1 -1 1 0 0 Z " fill="#10293E" transform="translate(183,204)"/>
<path d="M0 0 C0.33 0.66 0.66 1.32 1 2 C1.66 2 2.32 2 3 2 C2.67 4.31 2.34 6.62 2 9 C1.01 9 0.02 9 -1 9 C-1.33 10.32 -1.66 11.64 -2 13 C-2.66 13 -3.32 13 -4 13 C-2.66666667 9.66666667 -1.33333333 6.33333333 0 3 C-1.65 3.66 -3.3 4.32 -5 5 C-5 4.01 -5 3.02 -5 2 C-3.35 1.34 -1.7 0.68 0 0 Z M-5 13 C-5 16 -5 16 -7.375 18.4375 C-8.24125 19.283125 -9.1075 20.12875 -10 21 C-11.29519995 23.16620544 -11.29519995 23.16620544 -12 25 C-12.66 24.01 -13.32 23.02 -14 22 C-11.03 19.03 -8.06 16.06 -5 13 Z " fill="#1D2D3A" transform="translate(159,238)"/>
<path d="M0 0 C-0.25390625 1.859375 -0.25390625 1.859375 -1 4 C-2.77734375 5.265625 -2.77734375 5.265625 -4.9375 6.25 C-6.00291016 6.75273437 -6.00291016 6.75273437 -7.08984375 7.265625 C-9 8 -9 8 -11 8 C-11.2475 8.5775 -11.495 9.155 -11.75 9.75 C-13.16683317 12.3002997 -14.87627537 14.01785701 -17 16 C-15.47793243 10.20871852 -14.3641954 6.24346699 -9 3 C-3.64285714 0 -3.64285714 0 0 0 Z " fill="#21577C" transform="translate(97,205)"/>
<path d="M0 0 C1.98 0.495 1.98 0.495 4 1 C4.04939662 4.95096978 4.08571755 8.9018203 4.10986328 12.85302734 C4.12488107 14.8591136 4.15028981 16.86511324 4.17578125 18.87109375 C4.18222656 20.12792969 4.18867188 21.38476562 4.1953125 22.6796875 C4.20578613 23.84226074 4.21625977 25.00483398 4.22705078 26.20263672 C4 29 4 29 2 31 C2 21.76 2 12.52 2 3 C1.01 2.67 0.02 2.34 -1 2 C-0.67 1.34 -0.34 0.68 0 0 Z " fill="#142E44" transform="translate(170,202)"/>
<path d="M0 0 C9.9 0 19.8 0 30 0 C29.67 0.66 29.34 1.32 29 2 C28.08504761 1.99214478 28.08504761 1.99214478 27.15161133 1.98413086 C24.37191815 1.96326665 21.59224149 1.95030987 18.8125 1.9375 C17.85279297 1.92912109 16.89308594 1.92074219 15.90429688 1.91210938 C14.97294922 1.90888672 14.04160156 1.90566406 13.08203125 1.90234375 C12.22843018 1.89710693 11.3748291 1.89187012 10.49536133 1.88647461 C7.87813685 2.00554411 5.52710069 2.30329524 3 3 C1.414131 6.171738 1.62133555 9.63513822 1.4375 13.125 C1.39431641 13.87910156 1.35113281 14.63320312 1.30664062 15.41015625 C1.2005168 17.27321888 1.09974999 19.13658524 1 21 C0.67 21 0.34 21 0 21 C0 14.07 0 7.14 0 0 Z " fill="#1D3241" transform="translate(276,203)"/>
<path d="M0 0 C9.42446043 4.22661871 9.42446043 4.22661871 12 7.6875 C15.16576705 11.34791815 19.35707105 11.40634305 24 12 C23.01 12.99 22.02 13.98 21 15 C17.7 14.01 14.4 13.02 11 12 C11 10.68 11 9.36 11 8 C7.15299368 5.91620491 3.09945571 4.50313376 -1 3 C-1 3.66 -1 4.32 -1 5 C-1.66 5 -2.32 5 -3 5 C-3 4.01 -3 3.02 -3 2 C-2.01 1.34 -1.02 0.68 0 0 Z " fill="#2C516C" transform="translate(95,244)"/>
<path d="M0 0 C3.63 0.66 7.26 1.32 11 2 C11.33 2.99 11.66 3.98 12 5 C11.34 5.66 10.68 6.32 10 7 C7.6875 6.79296875 7.6875 6.79296875 5 6.1875 C3.6696875 5.89939453 3.6696875 5.89939453 2.3125 5.60546875 C0 5 0 5 -2 4 C-1.34 2.68 -0.68 1.36 0 0 Z " fill="#16374E" transform="translate(215,293)"/>
<path d="M0 0 C1.37178473 2.24891103 2.04524238 3.52282099 1.79296875 6.18359375 C1.49326172 7.29927734 1.49326172 7.29927734 1.1875 8.4375 C0.98769531 9.21867187 0.78789062 9.99984375 0.58203125 10.8046875 C0.38996094 11.52914063 0.19789063 12.25359375 0 13 C-0.33986667 14.66534667 -0.67702486 16.33129513 -1 18 C-1.66 18 -2.32 18 -3 18 C-3.66 20.64 -4.32 23.28 -5 26 C-5.66 25.67 -6.32 25.34 -7 25 C-6.82984375 24.45214844 -6.6596875 23.90429688 -6.484375 23.33984375 C-4.12202576 15.61194598 -2.05258427 7.81440711 0 0 Z " fill="#1A3142" transform="translate(170,248)"/>
<path d="M0 0 C1.3125 2.0625 1.3125 2.0625 2 4 C-0.64 4 -3.28 4 -6 4 C-6.66 5.32 -7.32 6.64 -8 8 C-8.12375 7.071875 -8.12375 7.071875 -8.25 6.125 C-8.81258459 3.81562433 -8.81258459 3.81562433 -11.0625 2.75 C-11.701875 2.5025 -12.34125 2.255 -13 2 C-9.49327206 -1.50672794 -4.56056799 -1.64687177 0 0 Z " fill="#224867" transform="translate(151,210)"/>
<path d="M0 0 C1.9375 0.375 1.9375 0.375 4 1 C4.33 1.66 4.66 2.32 5 3 C2.07557003 8.26397395 -0.14880583 9.94694941 -6 12 C-6.886875 12.4125 -7.77375 12.825 -8.6875 13.25 C-11.26783672 14.08686596 -12.48986514 13.92967958 -15 13 C-9.66666667 10.33333333 -4.33333333 7.66666667 1 5 C1.10540926 2.78918149 1.10540926 2.78918149 0 0 Z " fill="#20323E" transform="translate(133,268)"/>
<path d="M0 0 C0.66 0 1.32 0 2 0 C0.125 5.875 0.125 5.875 -1 7 C-1.3089031 13.21785385 -1.3089031 13.21785385 1 19 C-1.31 20.98 -3.62 22.96 -6 25 C-6.66 24.67 -7.32 24.34 -8 24 C-7.505 22.515 -7.505 22.515 -7 21 C-5.68 20.34 -4.36 19.68 -3 19 C-3 14.38 -3 9.76 -3 5 C-2.34 5 -1.68 5 -1 5 C-0.67 3.35 -0.34 1.7 0 0 Z " fill="#265171" transform="translate(127,231)"/>
<path d="M0 0 C0.66 0.33 1.32 0.66 2 1 C2 2.32 2 3.64 2 5 C2.66 4.34 3.32 3.68 4 3 C5.32 3.33 6.64 3.66 8 4 C7.34 6.64 6.68 9.28 6 12 C4.35 12 2.7 12 1 12 C1 11.01 1 10.02 1 9 C1.66 9.33 2.32 9.66 3 10 C3.33 9.34 3.66 8.68 4 8 C1.525 7.01 1.525 7.01 -1 6 C-1.042721 4.33388095 -1.04063832 2.66617115 -1 1 C-0.67 0.67 -0.34 0.34 0 0 Z " fill="#235477" transform="translate(83,234)"/>
<path d="M0 0 C0.99 0.495 0.99 0.495 2 1 C2 1.66 2 2.32 2 3 C2.99 3.33 3.98 3.66 5 4 C5 4.66 5 5.32 5 6 C5.99 6.33 6.98 6.66 8 7 C8 7.66 8 8.32 8 9 C8.886875 9.20625 9.77375 9.4125 10.6875 9.625 C14.92278682 11.38304358 16.30493333 13.35373333 19 17 C15.03990775 17 13.85479241 15.59219817 10.8125 13.125 C9.91144531 12.40570313 9.01039062 11.68640625 8.08203125 10.9453125 C7.05142578 9.98238281 7.05142578 9.98238281 6 9 C6 8.34 6 7.68 6 7 C5.38125 6.71125 4.7625 6.4225 4.125 6.125 C2 5 2 5 0 3 C0 2.01 0 1.02 0 0 Z " fill="#142A3B" transform="translate(76,292)"/>
<path d="M0 0 C0.66 0.66 1.32 1.32 2 2 C1.3503125 2.8353125 1.3503125 2.8353125 0.6875 3.6875 C-1.02572245 5.94303856 -1.02572245 5.94303856 -2.3125 8.3125 C-4.50663106 11.80685688 -6.92680987 15.22292455 -10 18 C-10.99 18 -11.98 18 -13 18 C-13.33 18.99 -13.66 19.98 -14 21 C-14.66 20.67 -15.32 20.34 -16 20 C-10.03225806 12.74193548 -10.03225806 12.74193548 -8 11 C-7.34 11 -6.68 11 -6 11 C-5.7525 10.484375 -5.505 9.96875 -5.25 9.4375 C-3.60418384 6.22815849 -1.8023904 3.12414336 0 0 Z " fill="#172C3E" transform="translate(162,274)"/>
<path d="M0 0 C4.05606165 0.46800711 7.46588679 0.87953208 11 3 C10.67 4.65 10.34 6.3 10 8 C7 7 7 7 5 5 C3.35008418 4.29289322 1.68437744 3.62056011 0 3 C0 2.01 0 1.02 0 0 Z " fill="#235B85" transform="translate(134,224)"/>
<path d="M0 0 C0 0.33 0 0.66 0 1 C-1.8871875 0.938125 -1.8871875 0.938125 -3.8125 0.875 C-8.49649218 0.86024727 -12.82212321 1.63993178 -17.40234375 2.5546875 C-20.67733677 3.11611488 -23.6877656 3.14721042 -27 3 C-18.70138488 -1.84085882 -9.15970187 -1.8789132 0 0 Z " fill="#254F6B" transform="translate(128,198)"/>
<path d="M0 0 C0.33 0.66 0.66 1.32 1 2 C1.66 2.33 2.32 2.66 3 3 C1.68 3.33 0.36 3.66 -1 4 C-1 4.99 -1 5.98 -1 7 C-4.19902639 7.08886184 -6.92677456 6.91058531 -10 6 C-10 5.01 -10 4.02 -10 3 C-6.7 2.67 -3.4 2.34 0 2 C0 1.34 0 0.68 0 0 Z " fill="#193247" transform="translate(95,268)"/>
<path d="M0 0 C0.66 0.33 1.32 0.66 2 1 C-8.57894737 11.78637771 -8.57894737 11.78637771 -12 14 C-12.99 13.67 -13.98 13.34 -15 13 C-13.06478939 11.20580474 -11.1269646 9.41458671 -9.1875 7.625 C-8.64029297 7.11710938 -8.09308594 6.60921875 -7.52929688 6.0859375 C-5.09977985 3.84783697 -2.75431332 1.83620888 0 0 Z " fill="#1D2D3D" transform="translate(138,244)"/>
<path d="M0 0 C0.94921875 3.16015625 0.94921875 3.16015625 1.6875 7.0625 C2.06455078 8.99802734 2.06455078 8.99802734 2.44921875 10.97265625 C2.63097656 11.97167969 2.81273437 12.97070312 3 14 C2.01 14.495 2.01 14.495 1 15 C1 14.34 1 13.68 1 13 C0.34 12.67 -0.32 12.34 -1 12 C-1 11.01 -1 10.02 -1 9 C-2.0325325 5.18757229 -2.89991379 2.53643417 -6 0 C-3 -1 -3 -1 0 0 Z " fill="#1E303C" transform="translate(165,216)"/>
<path d="M0 0 C0.66 0.33 1.32 0.66 2 1 C2 1.66 2 2.32 2 3 C1.0409375 3.1546875 1.0409375 3.1546875 0.0625 3.3125 C-0.618125 3.539375 -1.29875 3.76625 -2 4 C-2.33 4.99 -2.66 5.98 -3 7 C-4.63264644 8.45961383 -6.32912023 9.84906752 -8.0625 11.1875 C-8.98160156 11.90292969 -9.90070313 12.61835938 -10.84765625 13.35546875 C-11.55792969 13.89816406 -12.26820313 14.44085938 -13 15 C-13.33 14.01 -13.66 13.02 -14 12 C-10.79514913 8.79514913 -7.30320175 6.43440058 -3 5 C-1.8499169 3.03327085 -1.8499169 3.03327085 -1 1 C-0.67 0.67 -0.34 0.34 0 0 Z " fill="#1D313C" transform="translate(150,247)"/>
<path d="M0 0 C2.31 0 4.62 0 7 0 C3.71754385 2.81468599 0.56166518 3.96291853 -3.5625 5.1875 C-4.69816406 5.53167969 -5.83382812 5.87585938 -7.00390625 6.23046875 C-10 7 -10 7 -13 7 C-13 6.34 -13 5.68 -13 5 C-8.71 3.68 -4.42 2.36 0 1 C0 0.67 0 0.34 0 0 Z " fill="#1A3445" transform="translate(93,194)"/>
<path d="M0 0 C0.66 0 1.32 0 2 0 C0.50966489 4.32489404 -2.68571229 6.0358302 -6.4375 8.25 C-7.31631836 8.79527344 -7.31631836 8.79527344 -8.21289062 9.3515625 C-11.0233388 11.04867763 -12.66000574 12 -16 12 C-13.04983186 8.82559105 -9.99784714 6.58078442 -6.3125 4.3125 C-2.97781689 2.39067278 -2.97781689 2.39067278 0 0 Z " fill="#172E43" transform="translate(141,297)"/>
<path d="M0 0 C4.62 0.66 9.24 1.32 14 2 C10 4 10 4 7 4 C7 4.66 7 5.32 7 6 C4.625 5.25 4.625 5.25 2 4 C1.34 2.68 0.68 1.36 0 0 Z " fill="#202C3C" transform="translate(89,280)"/>
<path d="M0 0 C0 0.99 0 1.98 0 3 C-0.61875 3.28875 -1.2375 3.5775 -1.875 3.875 C-4.13325765 4.93720042 -4.13325765 4.93720042 -6 7 C-8.5 8.6875 -8.5 8.6875 -11 10 C-11.66 9.67 -12.32 9.34 -13 9 C-13 8.34 -13 7.68 -13 7 C-11.2421875 6.0234375 -9.484375 5.046875 -7.7265625 4.0703125 C-5.8387386 2.99102726 -5.8387386 2.99102726 -4 1 C-1.875 0.375 -1.875 0.375 0 0 Z " fill="#0F2639" transform="translate(136,313)"/>
<path d="M0 0 C0.66 0.33 1.32 0.66 2 1 C-0.01246132 3.01246132 -1.99617429 4.38454567 -4.375 5.9375 C-7.32880695 7.86883531 -10.19638618 9.85568349 -13 12 C-12.6121322 9.51339545 -12.29037521 8.27654781 -10.44140625 6.515625 C-9.82136719 6.09796875 -9.20132813 5.6803125 -8.5625 5.25 C-7.94503906 4.82203125 -7.32757813 4.3940625 -6.69140625 3.953125 C-5 3 -5 3 -3 3 C-3 2.34 -3 1.68 -3 1 C-2.01 0.67 -1.02 0.34 0 0 Z " fill="#122637" transform="translate(151,303)"/>
<path d="M0 0 C6.875 0.875 6.875 0.875 8 2 C8.14115161 4.67058851 8.04247107 7.32432238 8 10 C7.34 9.67 6.68 9.34 6 9 C5.896875 8.38125 5.79375 7.7625 5.6875 7.125 C4.70040743 4.07398661 2.70839329 3.5278116 0 2 C0 1.34 0 0.68 0 0 Z " fill="#152C40" transform="translate(175,194)"/>
<path d="M0 0 C0.33 0 0.66 0 1 0 C1.19294408 4.82360189 0.75747614 8.49646738 -1 13 C-1.66 13 -2.32 13 -3 13 C-3.27131956 7.66404866 -3.4266889 4.38616179 0 0 Z " fill="#1F587C" transform="translate(77,225)"/>
<path d="M0 0 C8.415 2.475 8.415 2.475 17 5 C16.67 5.66 16.34 6.32 16 7 C10.125 6.125 10.125 6.125 9 5 C8.05125 5.04125 7.1025 5.0825 6.125 5.125 C3 5 3 5 1.125 3.625 C0 2 0 2 0 0 Z " fill="#192F42" transform="translate(150,186)"/>
<path d="M0 0 C-0.99 0.66 -1.98 1.32 -3 2 C-3.7425 2.53625 -4.485 3.0725 -5.25 3.625 C-8.66683222 5.33341611 -11.22950308 5.22179394 -15 5 C-10.87369509 1.38948321 -5.38708192 -1.79569397 0 0 Z " fill="#163347" transform="translate(113,179)"/>
<path d="M0 0 C2.4375 0.25 2.4375 0.25 5 1 C5.66 1.99 6.32 2.98 7 4 C3.70303895 5.09898702 2.59505097 4.87124444 -0.6875 4.0625 C-1.89986328 3.77052734 -1.89986328 3.77052734 -3.13671875 3.47265625 C-4.05904297 3.23869141 -4.05904297 3.23869141 -5 3 C-4.360625 2.690625 -3.72125 2.38125 -3.0625 2.0625 C-1.06389179 1.1654837 -1.06389179 1.1654837 0 0 Z " fill="#173143" transform="translate(117,175)"/>
<path d="M0 0 C0.0825 0.5775 0.165 1.155 0.25 1.75 C0.86104147 4.17679017 0.86104147 4.17679017 3.0625 5.9375 C5 8 5 8 5.25 10.75 C5.1675 11.4925 5.085 12.235 5 13 C3.35 13.33 1.7 13.66 0 14 C0 13.34 0 12.68 0 12 C1.32 12 2.64 12 4 12 C4 11.01 4 10.02 4 9 C3.01 9 2.02 9 1 9 C-2 4.77777778 -2 4.77777778 -2 2 C-1.34 2 -0.68 2 0 2 C0 1.34 0 0.68 0 0 Z " fill="#1D4A65" transform="translate(91,255)"/>
<path d="M0 0 C0.66 0 1.32 0 2 0 C2.87890625 6.15234375 2.87890625 6.15234375 3 8 C2.67 8.33 2.34 8.66 2 9 C1.76636119 10.84891946 1.58696365 12.70488031 1.4375 14.5625 C1.35371094 15.57441406 1.26992187 16.58632812 1.18359375 17.62890625 C1.12300781 18.41136719 1.06242187 19.19382813 1 20 C0.67 20 0.34 20 0 20 C0 13.4 0 6.8 0 0 Z " fill="#0C2840" transform="translate(64,213)"/>
<path d="M0 0 C3.63 1.98 7.26 3.96 11 6 C6.59662012 7.10084497 5.73201586 6.7915332 1.75 5.0625 C0.85796875 4.68222656 -0.0340625 4.30195313 -0.953125 3.91015625 C-1.62859375 3.60980469 -2.3040625 3.30945313 -3 3 C-2.01 2.67 -1.02 2.34 0 2 C0 1.34 0 0.68 0 0 Z " fill="#133146" transform="translate(123,185)"/>
<path d="M0 0 C3.3 1.65 6.6 3.3 10 5 C6.59068103 6.13643966 5.99664544 5.86747764 2.8125 4.5625 C2.09707031 4.27503906 1.38164063 3.98757812 0.64453125 3.69140625 C0.10183594 3.46324219 -0.44085938 3.23507813 -1 3 C-1 3.66 -1 4.32 -1 5 C-1.66 5 -2.32 5 -3 5 C-3 4.01 -3 3.02 -3 2 C-2.01 1.34 -1.02 0.68 0 0 Z " fill="#1E4F6F" transform="translate(95,244)"/>
<path d="M0 0 C1.9375 0.875 1.9375 0.875 3.9375 3.875 C2.9475 4.37 2.9475 4.37 1.9375 4.875 C1.9375 4.215 1.9375 3.555 1.9375 2.875 C0.2875 3.205 -1.3625 3.535 -3.0625 3.875 C-3.0625 4.865 -3.0625 5.855 -3.0625 6.875 C-3.3925 7.535 -3.7225 8.195 -4.0625 8.875 C-4.7225 8.215 -5.3825 7.555 -6.0625 6.875 C-5.82458141 4.41650788 -5.198619 3.06297385 -3.75 1.0625 C-2.0625 -0.125 -2.0625 -0.125 0 0 Z " fill="#213242" transform="translate(207.0625,233.125)"/>
<path d="M0 0 C1.79260132 0.05995322 3.58425795 0.1487241 5.375 0.25 C6.87160156 0.31960937 6.87160156 0.31960937 8.3984375 0.390625 C11 1 11 1 12.3515625 3.046875 C12.56554687 3.69140625 12.77953125 4.3359375 13 5 C11.58089348 4.74225629 10.16475101 4.46816835 8.75 4.1875 C7.96109375 4.03667969 7.1721875 3.88585937 6.359375 3.73046875 C3.74095891 2.91980019 2.08895488 1.74878103 0 0 Z " fill="#1C3347" transform="translate(138,194)"/>
<path d="M0 0 C3.59634744 3.49359465 6.83451967 7.11098131 10 11 C5.57165324 9.60823388 2.96898547 7.56278256 0 4 C0 2.68 0 1.36 0 0 Z " fill="#182E3D" transform="translate(79,280)"/>
<path d="M0 0 C4.95 0 9.9 0 15 0 C15 1.65 15 3.3 15 5 C14.38125 4.525625 13.7625 4.05125 13.125 3.5625 C8.83894324 1.41947162 4.73399291 1.26657436 0 1 C0 0.67 0 0.34 0 0 Z " fill="#1C3240" transform="translate(423,294)"/>
<path d="M0 0 C0.33 0 0.66 0 1 0 C0.88512252 1.58409994 0.75765492 3.16728963 0.625 4.75 C0.55539062 5.63171875 0.48578125 6.5134375 0.4140625 7.421875 C0.00149945 9.99066382 -0.71160957 11.75841015 -2 14 C-2.66 14 -3.32 14 -4 14 C-3.52188823 12.22888156 -3.0424722 10.45811517 -2.5625 8.6875 C-2.29566406 7.70136719 -2.02882813 6.71523437 -1.75390625 5.69921875 C-1.21920575 3.78482474 -0.62855462 1.88566385 0 0 Z " fill="#1E3344" transform="translate(358,215)"/>
<path d="M0 0 C1.125 1.75 1.125 1.75 2 4 C1.125 6.25 1.125 6.25 0 8 C-0.66 8 -1.32 8 -2 8 C-2 10.64 -2 13.28 -2 16 C-2.33 16 -2.66 16 -3 16 C-3 12.7 -3 9.4 -3 6 C-2.34 5.67 -1.68 5.34 -1 5 C-0.34444881 2.47266765 -0.34444881 2.47266765 0 0 Z " fill="#266188" transform="translate(77,232)"/>
<path d="M0 0 C0.33 1.32 0.66 2.64 1 4 C0.01 4.33 -0.98 4.66 -2 5 C-2 5.66 -2 6.32 -2 7 C-3.98 7 -5.96 7 -8 7 C-8.33 6.34 -8.66 5.68 -9 5 C-7.88625 4.731875 -6.7725 4.46375 -5.625 4.1875 C-1.78159049 3.34190981 -1.78159049 3.34190981 0 0 Z " fill="#235371" transform="translate(94,228)"/>
<path d="M0 0 C0 0.99 0 1.98 0 3 C-2.3125 4.75 -2.3125 4.75 -5 6 C-5.99 5.67 -6.98 5.34 -8 5 C-8 4.34 -8 3.68 -8 3 C-5.36 2.01 -2.72 1.02 0 0 Z " fill="#183046" transform="translate(96,183)"/>
<path d="M0 0 C0.66 0 1.32 0 2 0 C1.3125 2.4375 1.3125 2.4375 0 5 C-2.625 5.8125 -2.625 5.8125 -5 6 C-4.67 4.35 -4.34 2.7 -4 1 C-2.02 1.495 -2.02 1.495 0 2 C0 1.34 0 0.68 0 0 Z " fill="#1A2E3C" transform="translate(132,261)"/>
<path d="M0 0 C0.66 0.33 1.32 0.66 2 1 C1.34 3.97 0.68 6.94 0 10 C-0.99 9.67 -1.98 9.34 -3 9 C-2.01 6.03 -1.02 3.06 0 0 Z " fill="#192D43" transform="translate(180,250)"/>
<path d="M0 0 C2.1875 -0.375 2.1875 -0.375 5 0 C6.99022836 1.83961648 8.38989899 3.79186148 10 6 C9.01 6.495 9.01 6.495 8 7 C8 6.34 8 5.68 8 5 C7.4225 4.9175 6.845 4.835 6.25 4.75 C3.3840696 3.79468987 2.0009236 2.21530827 0 0 Z " fill="#14293B" transform="translate(89,293)"/>
<path d="M0 0 C1.32 0.33 2.64 0.66 4 1 C3.67 2.65 3.34 4.3 3 6 C2.01 5.67 1.02 5.34 0 5 C0 3.35 0 1.7 0 0 Z " fill="#193950" transform="translate(338,230)"/>
<path d="M0 0 C-1.14018002 3.42054006 -1.92458518 4.2426201 -5 6 C-7.13671875 5.578125 -7.13671875 5.578125 -9 5 C-7.87926138 4.16094435 -6.75325453 3.32892169 -5.625 2.5 C-4.99851563 2.0359375 -4.37203125 1.571875 -3.7265625 1.09375 C-2 0 -2 0 0 0 Z " fill="#192732" transform="translate(145,261)"/>
<path d="M0 0 C1.32 0 2.64 0 4 0 C6.125 4.625 6.125 4.625 5 8 C2 3.25 2 3.25 2 1 C1.34 0.67 0.68 0.34 0 0 Z " fill="#203746" transform="translate(385,256)"/>
<path d="M0 0 C0.66 0.33 1.32 0.66 2 1 C2 1.66 2 2.32 2 3 C1.360625 3.103125 0.72125 3.20625 0.0625 3.3125 C-0.618125 3.539375 -1.29875 3.76625 -2 4 C-2.33 4.99 -2.66 5.98 -3 7 C-3.99 6.67 -4.98 6.34 -6 6 C-5.01 5.67 -4.02 5.34 -3 5 C-1.8499169 3.03327085 -1.8499169 3.03327085 -1 1 C-0.67 0.67 -0.34 0.34 0 0 Z " fill="#172639" transform="translate(150,247)"/>
<path d="M0 0 C0.33 0.66 0.66 1.32 1 2 C-2.625 6.875 -2.625 6.875 -6 8 C-5.34 6.35 -4.68 4.7 -4 3 C-3.01 3 -2.02 3 -1 3 C-0.67 2.01 -0.34 1.02 0 0 Z " fill="#102434" transform="translate(159,295)"/>
<path d="M0 0 C0.66 0 1.32 0 2 0 C2.33 1.98 2.66 3.96 3 6 C1.35 6 -0.3 6 -2 6 C-1.34 4.02 -0.68 2.04 0 0 Z " fill="#2A6088" transform="translate(101,201)"/>
<path d="M0 0 C1.98 0 3.96 0 6 0 C6 0.33 6 0.66 6 1 C4.02 1 2.04 1 0 1 C0 0.67 0 0.34 0 0 Z " fill="#1C1C5C" transform="translate(84,269)"/>
<path d="M0 0 C0.33 0 0.66 0 1 0 C1 1.65 1 3.3 1 5 C0.67 5 0.34 5 0 5 C0 3.35 0 1.7 0 0 Z " fill="#000000" transform="translate(183,241)"/>
<path d="" fill="#000000" transform="translate(0,0)"/>
<path d="M0 0 C2 1 2 1 2 1 Z " fill="#000000" transform="translate(136,210)"/>
<path d="" fill="#000000" transform="translate(0,0)"/>
<path d="" fill="#000000" transform="translate(0,0)"/>
<path d="" fill="#000000" transform="translate(0,0)"/>
<path d="" fill="#000000" transform="translate(0,0)"/>
<path d="" fill="#000000" transform="translate(0,0)"/>
<path d="" fill="#000000" transform="translate(0,0)"/>
<path d="" fill="#000000" transform="translate(0,0)"/>
<path d="" fill="#000000" transform="translate(0,0)"/>
<path d="" fill="#000000" transform="translate(0,0)"/>
<path d="" fill="#000000" transform="translate(0,0)"/>
<path d="" fill="#000000" transform="translate(0,0)"/>
</svg>
